<?xml version="1.0" encoding="UTF-8"?>
<svg id="VG_rounded" data-name="VG rounded" xmlns="http://www.w3.org/2000/svg" viewBox="0 0 512 512">
  <defs>
    <style>
      .cls-1 {
        fill: #191919;
      }

      .cls-1, .cls-2 {
        stroke-width: 0px;
      }

      .cls-2 {
        fill: #fff;
      }
    </style>
  </defs>
  <rect class="cls-1" x="0" width="512" height="512" rx="134.06" ry="134.06"/>
  <path class="cls-2" d="M200.87,310.05c3.99-27.74,12.34-55.16,22.24-81.4,7.51-19.89,17.17-38.62,30.72-55.17,17.85-21.8,40.68-35.37,68.16-41.27,24-5.16,47.41-3.5,69.63,7.28,24.9,12.08,39.56,32.05,44.06,59.49,3.2,19.51.48,37.62-11.75,53.63-10.04,13.14-23.78,20.62-39.59,24.17-9.1,2.05-18.48,2.82-27.72,4.27-12.48,1.96-24.82,4.51-35.01,12.67-9.85,7.88-14.92,17.98-12.13,30.77,2.19,10.06,9.88,14.8,19.08,17.12,20.55,5.17,39.29-3.65,51.15-23.61,1.69-2.84,3.44-5.7,5.52-8.25,5.34-6.54,12.31-9.84,20.66-7.79,8.28,2.03,12.46,8.53,14.49,16.36,3.39,13.06,1.09,25.79-3.88,37.89-12.65,30.8-36.15,49.46-67.89,57.7-24.3,6.31-48.07,4.19-69.79-9.21-20.75-12.8-33.62-31.32-36.95-55.82-3.1-22.81,3.38-43.04,17.57-60.82,16.02-20.08,37.6-31.51,61.78-38.68,7.75-2.3,15.74-3.99,23.16-7.08,5.46-2.28,10.84-5.68,15.09-9.79,13.17-12.76,8.35-32.94-9.02-38.86-11.97-4.09-23.99-2.5-35.78.93-20.38,5.93-75.41,45.5-90.5,113.21-14.23,66.85,13.13,89.69,14.35,92.62,2.17,5.19.26,7.86-5.33,8.12-17.84.83-34.2-3.95-49.1-13.5-26.08-16.7-40.71-40.97-46.3-71.12-2.69-14.54-3.05-29.18-1.9-43.84.84-10.71,2.67-21.33,3.67-32.03,1.54-16.37,1.79-32.76-2.8-48.76-6.08-21.19-19.97-35.85-39.3-45.74-4.16-2.13-8.64-3.81-12.44-6.46-12.05-8.42-12.58-24.65-4.66-36.15,7.06-10.24,17.73-14.71,29.58-15.83,26.34-2.48,49.4,5.82,69.34,22.87,13.67,11.68,21.35,26.91,24.67,44.4,2.98,15.7,2.72,31.53.04,47.19-2.94,17.18-6.78,34.2-10.03,51.32-3.11,16.44-5.94,33.3-1.2,49.63,1.33,4.59,4.19,8.73,6.04,13.17.68-4.55,1.4-9.1,2.05-13.65Z"/>
</svg>